HIERARCHY
ROOT Hips
{
	OFFSET 0.000000 0.000000 0.000000 
	CHANNELS 6 Xposition Yposition Zposition Zrotation Yrotation Xrotation
	JOINT LeftUpLeg
	{
		OFFSET 1.363060 -1.794630 0.839290 
		CHANNELS 3 Zrotation Yrotation Xrotation
		JOINT LeftLeg
		{
			OFFSET 2.448110 -6.726130 0.000000 
			CHANNELS 3 Zrotation Yrotation Xrotation
			JOINT LeftFoot
			{
				OFFSET 2.562200 -7.039590 0.000000 
				CHANNELS 3 Zrotation Yrotation Xrotation
				JOINT LeftToeBase
				{
					OFFSET 0.157640 -0.433110 2.322550 
					CHANNELS 3 Zrotation Yrotation Xrotation
					End Site
					{
						OFFSET 0.000000 0.000000 0.000000 
					}
				}
			}
		}
	}
	JOINT RightUpLeg
	{
		OFFSET -1.305520 -1.794630 0.839290 
		CHANNELS 3 Zrotation Yrotation Xrotation
		JOINT RightLeg
		{
			OFFSET -2.542530 -6.985550 0.000000 
			CHANNELS 3 Zrotation Yrotation Xrotation
			JOINT RightFoot
			{
				OFFSET -2.568260 -7.056230 0.000000 
				CHANNELS 3 Zrotation Yrotation Xrotation
				JOINT RightToeBase
				{
					OFFSET -0.164730 -0.452590 2.363150 
					CHANNELS 3 Zrotation Yrotation Xrotation
					End Site
					{
						OFFSET 0.000000 0.000000 0.000000 
					}
				}
			}
		}
	}
	JOINT Spine
	{
		OFFSET 0.028270 2.035590 -0.193380 
		CHANNELS 3 Zrotation Yrotation Xrotation
		JOINT Spine1
		{
			OFFSET 0.056720 2.048850 -0.042750 
			CHANNELS 3 Zrotation Yrotation Xrotation
			JOINT Neck1
			{
				OFFSET -0.054170 1.746240 0.172020 
				CHANNELS 3 Zrotation Yrotation Xrotation
				JOINT Head
				{
					OFFSET 0.104070 1.761360 -0.123970 
					CHANNELS 3 Zrotation Yrotation Xrotation
					End Site
					{
						OFFSET 0.000000 0.000000 0.000000 
					}
				}
			}
			JOINT LeftArm
			{
				OFFSET 3.362410 1.200890 -0.311210 
				CHANNELS 3 Zrotation Yrotation Xrotation
				JOINT LeftForeArm
				{
					OFFSET 4.983000 -0.000000 -0.000000 
					CHANNELS 3 Zrotation Yrotation Xrotation
					JOINT LeftHand
					{
						OFFSET 3.483560 -0.000000 -0.000000 
						CHANNELS 3 Zrotation Yrotation Xrotation
						JOINT LeftHandIndex1
						{
							OFFSET 0.715260 -0.000000 -0.000000 
							CHANNELS 3 Zrotation Yrotation Xrotation
							End Site
							{
								OFFSET 0.000000 0.000000 0.000000 
							}
						}
					}
				}
			}
			JOINT RightArm
			{
				OFFSET -3.136600 1.374050 -0.404650 
				CHANNELS 3 Zrotation Yrotation Xrotation
				JOINT RightForeArm
				{
					OFFSET -5.241900 -0.000000 -0.000000 
					CHANNELS 3 Zrotation Yrotation Xrotation
					JOINT RightHand
					{
						OFFSET -3.444170 -0.000000 -0.000000 
						CHANNELS 3 Zrotation Yrotation Xrotation
						JOINT RightHandIndex1
						{
							OFFSET -0.622530 -0.000000 -0.000000 
							CHANNELS 3 Zrotation Yrotation Xrotation
							End Site
							{
								OFFSET 0.000000 0.000000 0.000000 
							}
						}
					}
				}
			}
		}
	}
}
MOTION
Frames: 6
Frame Time: 0.041667
0.733029 17.437974 5.443504 3.740940 3.765316 1.334659 -25.438404 -2.333166 14.198000 1.401508 7.226906 25.063123 0.721056 -3.387143 8.555737 1.489900 -7.711100 -21.840100 16.862808 13.169345 -25.975520 -0.992262 -7.280577 20.554448 0.218146 -5.180479 11.122362 -0.091300 1.948500 -5.363400 1.541868 -4.111692 -1.677522 7.100383 -1.784880 -2.835629 2.801362 -0.061269 17.921159 2.947800 -0.841100 10.705900 -77.346319 -4.135503 24.963482 15.169902 -27.224566 -4.796131 -0.862787 -2.822394 11.075867 -7.125000 0.000000 0.000000 82.938726 -11.470503 0.836939 -10.230968 15.771072 -1.736562 1.110343 -1.307867 13.650783 7.125000 0.000000 0.000000 
0.715668 17.453610 5.668590 3.088372 3.382265 1.167304 -24.770723 -2.311160 13.621403 1.702366 7.773155 26.749558 0.728928 -3.125469 11.090605 1.536900 -7.826200 -22.187600 18.028544 13.020237 -25.569278 -1.084479 -7.479053 21.276702 0.068180 -4.364970 11.460518 -0.040300 1.295700 -3.562700 1.614503 -3.965889 -1.728394 6.908607 -1.698082 -3.039530 2.697999 0.036284 18.258247 2.909300 -0.821900 10.870400 -77.531103 -3.550018 24.503846 15.226180 -27.308404 -4.843542 -0.872488 -2.768228 10.953084 -7.125000 0.000000 0.000000 82.852635 -11.657679 0.459538 -10.071760 15.527199 -1.679838 1.093904 -1.319709 14.430636 7.125000 0.000000 0.000000 
0.703383 17.471885 5.892256 2.553783 2.785773 1.089121 -24.299495 -2.244695 12.793286 2.053943 8.366194 28.571188 0.720404 -2.396603 13.955808 1.384000 -7.443900 -21.037300 19.188517 12.629289 -25.247846 -1.187310 -7.692290 22.041869 -0.043281 -3.635416 11.495603 -0.022100 0.959800 -2.638100 1.661761 -3.729260 -1.804240 6.695513 -1.561588 -3.288576 2.617957 0.109886 18.477957 2.885700 -0.810300 10.953400 -77.743519 -2.961084 23.983369 15.259449 -27.348838 -4.860928 -0.845445 -2.782336 10.791770 -7.125000 0.000000 0.000000 82.764321 -11.887329 -0.057531 -9.883697 15.243679 -1.610206 1.084551 -1.387855 15.426717 7.125000 0.000000 0.000000 
0.683078 17.502952 6.126074 2.070703 2.852694 0.955498 -23.735531 -2.653872 12.040305 2.434614 8.978825 30.458417 0.800459 -1.759795 17.090647 1.017600 -6.417700 -18.001200 20.136865 12.148648 -24.663444 -1.296309 -7.888216 22.764637 -0.075313 -3.239500 11.191550 -0.001000 -0.207500 0.570100 1.715488 -3.757053 -1.845332 6.536752 -1.568102 -3.361350 2.574722 0.121909 18.624957 2.873800 -0.818900 10.993800 -77.894241 -2.465971 23.750761 15.310039 -27.416405 -4.867528 -0.829877 -2.865567 10.528197 -7.125000 0.000000 0.000000 82.728471 -12.195748 -0.271407 -9.829063 15.181778 -1.590784 1.092350 -1.416306 15.987251 7.125000 0.000000 0.000000 
0.667747 17.527928 6.339993 1.648143 2.479797 0.886465 -23.327457 -2.748188 10.967860 2.848028 9.588095 32.351427 0.936497 -1.009097 20.268814 0.751600 -5.537200 -15.447200 20.940958 12.080351 -24.220205 -1.379274 -8.044101 23.366928 -0.198478 -2.350253 11.057787 -0.060700 -1.590100 4.374000 1.729916 -3.547859 -1.860695 6.277187 -1.461393 -3.446619 2.522399 0.116682 18.879106 2.834200 -0.828700 11.172900 -78.002177 -2.240560 23.455681 15.274940 -27.351132 -4.831687 -0.826784 -2.899246 10.437545 -7.125000 0.000000 0.000000 82.807637 -12.303283 -0.046751 -9.923783 15.331206 -1.629824 1.092078 -1.348000 15.797912 7.125000 0.000000 0.000000 
0.646934 17.553919 6.551779 1.417913 2.222010 0.712837 -23.053872 -2.857414 9.966774 3.285182 10.191341 34.303393 1.196026 -0.760538 23.364488 0.602300 -4.968000 -13.817200 21.542265 11.963309 -23.498390 -1.433935 -8.110313 23.705514 -0.242323 -1.873274 10.732896 -0.118500 -2.219600 6.112900 1.727852 -3.397890 -1.882597 6.158336 -1.377553 -3.614228 2.575780 0.114253 19.100687 2.848600 -0.829400 11.348900 -78.128540 -1.908528 23.077004 15.200749 -27.240296 -4.787064 -0.810009 -2.901878 10.319652 -7.125000 0.000000 0.000000 82.897785 -12.332280 0.095968 -10.052136 15.516237 -1.681968 1.084332 -1.219475 15.597369 7.125000 0.000000 0.000000 
